<?xml version="1.0" encoding="UTF-8"?>
<svg version="1.1" xmlns="http://www.w3.org/2000/svg" width="131" height="108">
<path d="M0 0 C1.06175446 -0.00574036 1.06175446 -0.00574036 2.1449585 -0.01159668 C3.64108707 -0.01431355 5.13726332 -0.00696785 6.63330078 0.00976562 C8.90117036 0.03105563 11.16582648 0.01002736 13.43359375 -0.015625 C21.91199098 -0.03301016 29.10534921 0.02289652 35.51171875 6.34765625 C36.05505859 7.21197266 36.05505859 7.21197266 36.609375 8.09375 C36.98964844 8.67253906 37.36992188 9.25132813 37.76171875 9.84765625 C40.9022266 15.65692185 40.77636704 23.75556797 38.953125 29.98828125 C35.88543112 36.45765182 30.92340524 41.12132441 24.671875 44.53125 C20.70949538 45.71844184 16.71605029 46.66744557 12.671875 47.53125 C14.39963396 49.99058257 16.12890658 52.44882436 17.859375 54.90625 C18.39095215 55.66196289 18.9225293 56.41767578 19.47021484 57.19628906 C22.37827238 61.31964156 25.31130845 65.42167797 28.29296875 69.4921875 C28.87860596 70.29350098 29.46424316 71.09481445 30.06762695 71.92041016 C31.20095883 73.46768098 32.33866873 75.01175664 33.48120117 76.55224609 C36.07369019 80.09605187 38.32157997 83.29699153 39.671875 87.53125 C35.14286247 87.80805557 31.19319751 87.87363287 27.66601562 84.76132202 C25.75077886 82.2372443 24.07228297 79.65403962 22.421875 76.94921875 C21.48468628 75.50063225 21.48468628 75.50063225 20.52856445 74.02278137 C18.54485843 70.94028371 16.6086843 67.83087773 14.671875 64.71875 C13.34021661 62.63546385 12.00561082 60.55405857 10.66796875 58.47460938 C1.02710763 43.41630373 1.02710763 43.41630373 -1.328125 38.53125 C-0.21695312 38.57765625 0.89421875 38.6240625 2.0390625 38.671875 C14.37867876 39.08759781 14.37867876 39.08759781 25.671875 34.53125 C29.62809494 30.57503006 30.82022538 27.23324193 30.921875 21.71875 C30.85041631 17.26882258 30.47890268 14.1532212 27.671875 10.53125 C21.50273533 8.13400279 15.29120056 8.10161166 8.734375 7.90625 C7.66896484 7.86757813 6.60355469 7.82890625 5.50585938 7.7890625 C2.89469766 7.69538854 0.28353196 7.60966665 -2.328125 7.53125 C-2.31652344 8.51996094 -2.30492187 9.50867188 -2.29296875 10.52734375 C-2.0971463 36.19213577 -3.37680709 61.88849115 -4.328125 87.53125 C-7.298125 87.53125 -10.268125 87.53125 -13.328125 87.53125 C-14.75699916 83.24462753 -13.99527585 79.40988958 -13.58203125 74.953125 C-13.30552515 71.21686493 -13.32455378 67.50734908 -13.3515625 63.76171875 C-13.38329509 55.35622459 -12.99140598 46.99492043 -12.52856445 38.60375977 C-12.38946702 36.07267881 -12.25780555 33.54128491 -12.12695312 31.00976562 C-12.03949762 29.37237254 -11.95162221 27.73500181 -11.86328125 26.09765625 C-11.82469498 25.35479874 -11.7861087 24.61194122 -11.74635315 23.84657288 C-11.47634638 19.03792143 -10.97093708 14.30474357 -10.328125 9.53125 C-10.988125 9.53125 -11.648125 9.53125 -12.328125 9.53125 C-11.99925528 6.57142251 -11.52963462 4.80248914 -9.73925781 2.39257812 C-6.41982709 -0.16993097 -4.16445916 0.01433549 0 0 Z " fill="#F4F4F4" transform="translate(20.328125,10.46875)"/>
<path d="M0 0 C4.91182994 4.72592402 6.3638801 9.1332411 7 15.8125 C6.62064691 23.56647718 3.89116872 29.51431844 -1.40625 35.1484375 C-8.4177907 41.2974474 -15.98675062 42.07128207 -24.9375 42.125 C-26.23204102 42.1559375 -26.23204102 42.1559375 -27.55273438 42.1875 C-28.38224609 42.19265625 -29.21175781 42.1978125 -30.06640625 42.203125 C-30.82123291 42.2124707 -31.57605957 42.22181641 -32.35375977 42.23144531 C-34.88166342 41.78565001 -35.7612447 40.81496372 -37.375 38.875 C-37.40005615 39.68018066 -37.4251123 40.48536133 -37.45092773 41.31494141 C-37.54751158 44.37540103 -37.6466261 47.43576662 -37.74731445 50.49609375 C-37.81063439 52.44264815 -37.87117965 54.3892922 -37.93164062 56.3359375 C-38.21469764 64.87119519 -38.70334561 73.36188358 -39.375 81.875 C-45.52734375 82.75390625 -45.52734375 82.75390625 -47.375 82.875 C-48.375 81.875 -48.375 81.875 -48.4284668 79.89624023 C-48.39406494 79.00106689 -48.35966309 78.10589355 -48.32421875 77.18359375 C-48.28611084 76.11963379 -48.24800293 75.05567383 -48.20874023 73.95947266 C-48.13635132 72.15422119 -48.13635132 72.15422119 -48.0625 70.3125 C-47.99037345 68.35040688 -47.91826373 66.38831312 -47.84645081 64.4262085 C-47.76061257 62.10259654 -47.67235506 59.77908337 -47.58398438 57.45556641 C-47.33177405 50.77674848 -47.09594169 44.09735604 -46.859375 37.41796875 C-46.76864442 34.858154 -46.67790543 32.29833955 -46.5871582 29.73852539 C-46.54193024 28.46268585 -46.49670227 27.18684631 -46.45010376 25.87234497 C-46.22739175 19.60494549 -46.00248125 13.33762526 -45.77734375 7.0703125 C-45.73675842 5.94042404 -45.6961731 4.81053558 -45.65435791 3.64640808 C-45.56127903 1.05593727 -45.46816382 -1.53453224 -45.375 -4.125 C-8.30394878 -6.5802049 -8.30394878 -6.5802049 0 0 Z M-36.375 2.875 C-37.44388524 6.35165095 -37.48975767 9.54637478 -37.47265625 13.171875 C-37.46943359 14.37714844 -37.46621094 15.58242188 -37.46289062 16.82421875 C-37.45451172 18.07847656 -37.44613281 19.33273438 -37.4375 20.625 C-37.43298828 21.89472656 -37.42847656 23.16445313 -37.42382812 24.47265625 C-37.41204556 27.60681836 -37.39559416 30.74088541 -37.375 33.875 C-31.35525814 36.88487093 -19.58216835 35.60344663 -13.1875 33.8125 C-7.63151443 31.52980826 -4.55452734 27.23405469 -1.9375 22 C-0.94902183 16.50845459 -1.25981672 11.81624496 -4.0625 6.9375 C-9.94484203 1.69108683 -17.33641392 2.63648219 -24.75 2.75 C-26.42642578 2.76353516 -26.42642578 2.76353516 -28.13671875 2.77734375 C-30.88303462 2.80081654 -33.62890472 2.83365272 -36.375 2.875 Z " fill="#F4F4F4" transform="translate(118.375,15.125)"/>
<path d="M0 0 C0.66 0.66 1.32 1.32 2 2 C0.35 3.98 -1.3 5.96 -3 8 C-4.32 7.67 -5.64 7.34 -7 7 C-5.47005208 5.76302083 -3.94010417 4.52604167 -2.41015625 3.2890625 C-0.86733563 2.0333609 -0.86733563 2.0333609 0 0 Z " fill="#EEEEEE" transform="translate(114,40)"/>
<path d="M0 0 C0.99 0 1.98 0 3 0 C3.33 1.32 3.66 2.64 4 4 C2.35 4.33 0.7 4.66 -1 5 C-0.67 3.35 -0.34 1.7 0 0 Z " fill="#B0B0AD" transform="translate(9,15)"/>
</svg>
